# xmcd
#
# Track frame offsets:
#	150
#	24087
#	43256
#	65110
#	90015
#	114493
#	132939
#	148370
#	167903
#	194638
#
# Disc length: 3045 seconds
#
# Revision: 1
# Processed by: cddbd v1.5.2PL0 Copyright (c) Steve Scherf et al.
# Submitted via: audiograbber 1.83.01
#
DISCID=8f0be30a
DTITLE=Lost Then Found - Lost Then Found
DYEAR=1999
DGENRE=Gospel
TTITLE0=I Am Yours Lord
TTITLE1=Cover Me
TTITLE2=So Unworrthy
TTITLE3=Glory To The Holy One
TTITLE4=My Jesus
TTITLE5=A Come To Me
TTITLE6=Lord God I Love You
TTITLE7=The World Cannot Fill
TTITLE8=Lost Then Found
TTITLE9=The Meaningless Messiah
EXTD=
EXTT0=
EXTT1=
EXTT2=
EXTT3=
EXTT4=
EXTT5=
EXTT6=
EXTT7=
EXTT8=
EXTT9=
PLAYORDER=
